<svg xmlns="http://www.w3.org/2000/svg" width="1080" height="2400" viewBox="0 0 1080 2400"><defs><radialGradient id="g1" cx="50%" cy="50%" r="50%"><stop offset="0" stop-color="#15287d" stop-opacity="0.950"/><stop offset="0.35" stop-color="#15287d" stop-opacity="0.684"/><stop offset="0.65" stop-color="#15287d" stop-opacity="0.266"/><stop offset="1" stop-color="#15287d" stop-opacity="0.000"/></radialGradient><radialGradient id="g2" cx="50%" cy="50%" r="50%"><stop offset="0" stop-color="#0c1a5c" stop-opacity="0.800"/><stop offset="0.35" stop-color="#0c1a5c" stop-opacity="0.576"/><stop offset="0.65" stop-color="#0c1a5c" stop-opacity="0.224"/><stop offset="1" stop-color="#0c1a5c" stop-opacity="0.000"/></radialGradient><radialGradient id="g3" cx="50%" cy="50%" r="50%"><stop offset="0" stop-color="#101f6e" stop-opacity="0.900"/><stop offset="0.35" stop-color="#101f6e" stop-opacity="0.648"/><stop offset="0.65" stop-color="#101f6e" stop-opacity="0.252"/><stop offset="1" stop-color="#101f6e" stop-opacity="0.000"/></radialGradient><radialGradient id="g4" cx="50%" cy="50%" r="50%"><stop offset="0" stop-color="#1a34bd" stop-opacity="1.000"/><stop offset="0.35" stop-color="#1a34bd" stop-opacity="0.720"/><stop offset="0.65" stop-color="#1a34bd" stop-opacity="0.280"/><stop offset="1" stop-color="#1a34bd" stop-opacity="0.000"/></radialGradient></defs><rect x="0" y="0" width="1080" height="2400" rx="0" fill="#000000"/><ellipse cx="80%" cy="12%" rx="70%" ry="34%" fill="url(#g1)"/><ellipse cx="50%" cy="108%" rx="95%" ry="32%" fill="url(#g2)"/><ellipse cx="104%" cy="86%" rx="46%" ry="26%" fill="url(#g3)"/><ellipse cx="2%" cy="97%" rx="64%" ry="42%" fill="url(#g4)"/><defs><linearGradient id="card" x1="0" y1="0" x2="0.6" y2="1"><stop offset="0" stop-color="#12141C"/><stop offset="1" stop-color="#0C0E14"/></linearGradient><linearGradient id="cta" x1="0" y1="0" x2="1" y2="1"><stop offset="0" stop-color="#9945FF"/><stop offset="1" stop-color="#14F195"/></linearGradient></defs><text x="1032" y="180" font-family="Inter, system-ui, -apple-system, sans-serif" font-size="48" font-weight="400" fill="#98A2B3" text-anchor="end" letter-spacing="0.0" xml:space="preserve">Skip</text><rect x="48" y="2208" width="984" height="144" rx="48" fill="url(#cta)"/><text x="540" y="2301" font-family="Inter, system-ui, -apple-system, sans-serif" font-size="48" font-weight="700" fill="#000000" text-anchor="middle" letter-spacing="0.0" xml:space="preserve">Next</text><rect x="465" y="2142" width="60" height="18" rx="9" fill="#9945FF"/><rect x="537" y="2142" width="18" height="18" rx="9" fill="#272B36"/><rect x="567" y="2142" width="18" height="18" rx="9" fill="#272B36"/><rect x="597" y="2142" width="18" height="18" rx="9" fill="#272B36"/><text x="48" y="1776" font-family="Inter, system-ui, -apple-system, sans-serif" font-size="48" font-weight="400" fill="#98A2B3" text-anchor="start" letter-spacing="0.0" xml:space="preserve">Save a wallet once — a name, a note, a</text><text x="48" y="1848" font-family="Inter, system-ui, -apple-system, sans-serif" font-size="48" font-weight="400" fill="#98A2B3" text-anchor="start" letter-spacing="0.0" xml:space="preserve">group — and stop digging through old</text><text x="48" y="1920" font-family="Inter, system-ui, -apple-system, sans-serif" font-size="48" font-weight="400" fill="#98A2B3" text-anchor="start" letter-spacing="0.0" xml:space="preserve">chats for 44 characters. Search it, pin it,</text><text x="48" y="1992" font-family="Inter, system-ui, -apple-system, sans-serif" font-size="48" font-weight="400" fill="#98A2B3" text-anchor="start" letter-spacing="0.0" xml:space="preserve">read its balance at a glance.</text><text x="48" y="1500" font-family="Space Grotesk, Inter, system-ui, sans-serif" font-size="84" font-weight="700" fill="#F7F9FC" text-anchor="start" letter-spacing="-1.8" xml:space="preserve">Every address you send</text><text x="48" y="1602" font-family="Space Grotesk, Inter, system-ui, sans-serif" font-size="84" font-weight="700" fill="#F7F9FC" text-anchor="start" letter-spacing="-1.8" xml:space="preserve">to, in one place.</text><g transform="translate(0,486)"><rect x="48" y="0" width="984" height="138" rx="48" fill="#101219" stroke="#272B36" stroke-width="3"/><g transform="translate(90,42) scale(2.2500)"><path d="M11 4a7 7 0 1 1 0 14 7 7 0 0 1 0-14ZM20 20l-4-4" fill="none" stroke="#98A2B3" stroke-width="2" stroke-linecap="round" stroke-linejoin="round"/></g><text x="168" y="87" font-family="Inter, system-ui, -apple-system, sans-serif" font-size="48" font-weight="400" fill="#98A2B3" text-anchor="start" letter-spacing="0.0" xml:space="preserve">Search name or address…</text><rect x="48" y="162" width="984" height="276" rx="60" fill="url(#card)"/><rect x="48" y="162" width="984" height="276" rx="60" fill="none" stroke="#272B36" stroke-width="3"/><text x="96" y="258" font-family="Space Grotesk, Inter, system-ui, sans-serif" font-size="60" font-weight="600" fill="#F7F9FC" text-anchor="start" letter-spacing="-0.6" xml:space="preserve">Ada</text><g transform="translate(242,204) scale(2.2500)"><path d="M12 3l2.6 5.8 6.4.7-4.8 4.3 1.3 6.2L12 16.9 6.5 20l1.3-6.2L3 9.5l6.4-.7z" fill="#FDB022"/></g><rect x="320" y="201" width="187" height="66" rx="33" fill="#14F19526"/><text x="413" y="246" font-family="Inter, system-ui, -apple-system, sans-serif" font-size="36" font-weight="600" fill="#14F195" text-anchor="middle" letter-spacing="0.0" xml:space="preserve">Friends</text><text x="96" y="330" font-family="JetBrains Mono, ui-monospace, monospace" font-size="45" font-weight="400" fill="#98A2B3" text-anchor="start" letter-spacing="0.0" xml:space="preserve">7xKX…gAsU</text><text x="96" y="390" font-family="Inter, system-ui, -apple-system, sans-serif" font-size="36" font-weight="400" fill="#F7F9FC" text-anchor="start" letter-spacing="0.0" xml:space="preserve">12.42 SOL</text><rect x="828" y="222" width="156" height="156" rx="24" fill="#FFFFFF"/><rect x="842" y="236" width="7" height="7" rx="0" fill="#101418"/><rect x="848" y="236" width="7" height="7" rx="0" fill="#101418"/><rect x="854" y="236" width="7" height="7" rx="0" fill="#101418"/><rect x="860" y="236" width="7" height="7" rx="0" fill="#101418"/><rect x="866" y="236" width="7" height="7" rx="0" fill="#101418"/><rect x="872" y="236" width="7" height="7" rx="0" fill="#101418"/><rect x="879" y="236" width="7" height="7" rx="0" fill="#101418"/><rect x="927" y="236" width="7" height="7" rx="0" fill="#101418"/><rect x="933" y="236" width="7" height="7" rx="0" fill="#101418"/><rect x="940" y="236" width="7" height="7" rx="0" fill="#101418"/><rect x="946" y="236" width="7" height="7" rx="0" fill="#101418"/><rect x="952" y="236" width="7" height="7" rx="0" fill="#101418"/><rect x="958" y="236" width="7" height="7" rx="0" fill="#101418"/><rect x="964" y="236" width="7" height="7" rx="0" fill="#101418"/><rect x="842" y="242" width="7" height="7" rx="0" fill="#101418"/><rect x="879" y="242" width="7" height="7" rx="0" fill="#101418"/><rect x="897" y="242" width="7" height="7" rx="0" fill="#101418"/><rect x="927" y="242" width="7" height="7" rx="0" fill="#101418"/><rect x="964" y="242" width="7" height="7" rx="0" fill="#101418"/><rect x="842" y="248" width="7" height="7" rx="0" fill="#101418"/><rect x="854" y="248" width="7" height="7" rx="0" fill="#101418"/><rect x="860" y="248" width="7" height="7" rx="0" fill="#101418"/><rect x="866" y="248" width="7" height="7" rx="0" fill="#101418"/><rect x="879" y="248" width="7" height="7" rx="0" fill="#101418"/><rect x="891" y="248" width="7" height="7" rx="0" fill="#101418"/><rect x="897" y="248" width="7" height="7" rx="0" fill="#101418"/><rect x="903" y="248" width="7" height="7" rx="0" fill="#101418"/><rect x="927" y="248" width="7" height="7" rx="0" fill="#101418"/><rect x="940" y="248" width="7" height="7" rx="0" fill="#101418"/><rect x="946" y="248" width="7" height="7" rx="0" fill="#101418"/><rect x="952" y="248" width="7" height="7" rx="0" fill="#101418"/><rect x="964" y="248" width="7" height="7" rx="0" fill="#101418"/><rect x="842" y="254" width="7" height="7" rx="0" fill="#101418"/><rect x="854" y="254" width="7" height="7" rx="0" fill="#101418"/><rect x="860" y="254" width="7" height="7" rx="0" fill="#101418"/><rect x="866" y="254" width="7" height="7" rx="0" fill="#101418"/><rect x="879" y="254" width="7" height="7" rx="0" fill="#101418"/><rect x="891" y="254" width="7" height="7" rx="0" fill="#101418"/><rect x="927" y="254" width="7" height="7" rx="0" fill="#101418"/><rect x="940" y="254" width="7" height="7" rx="0" fill="#101418"/><rect x="946" y="254" width="7" height="7" rx="0" fill="#101418"/><rect x="952" y="254" width="7" height="7" rx="0" fill="#101418"/><rect x="964" y="254" width="7" height="7" rx="0" fill="#101418"/><rect x="842" y="260" width="7" height="7" rx="0" fill="#101418"/><rect x="854" y="260" width="7" height="7" rx="0" fill="#101418"/><rect x="860" y="260" width="7" height="7" rx="0" fill="#101418"/><rect x="866" y="260" width="7" height="7" rx="0" fill="#101418"/><rect x="879" y="260" width="7" height="7" rx="0" fill="#101418"/><rect x="891" y="260" width="7" height="7" rx="0" fill="#101418"/><rect x="897" y="260" width="7" height="7" rx="0" fill="#101418"/><rect x="909" y="260" width="7" height="7" rx="0" fill="#101418"/><rect x="915" y="260" width="7" height="7" rx="0" fill="#101418"/><rect x="927" y="260" width="7" height="7" rx="0" fill="#101418"/><rect x="940" y="260" width="7" height="7" rx="0" fill="#101418"/><rect x="946" y="260" width="7" height="7" rx="0" fill="#101418"/><rect x="952" y="260" width="7" height="7" rx="0" fill="#101418"/><rect x="964" y="260" width="7" height="7" rx="0" fill="#101418"/><rect x="842" y="266" width="7" height="7" rx="0" fill="#101418"/><rect x="879" y="266" width="7" height="7" rx="0" fill="#101418"/><rect x="891" y="266" width="7" height="7" rx="0" fill="#101418"/><rect x="897" y="266" width="7" height="7" rx="0" fill="#101418"/><rect x="927" y="266" width="7" height="7" rx="0" fill="#101418"/><rect x="964" y="266" width="7" height="7" rx="0" fill="#101418"/><rect x="842" y="273" width="7" height="7" rx="0" fill="#101418"/><rect x="848" y="273" width="7" height="7" rx="0" fill="#101418"/><rect x="854" y="273" width="7" height="7" rx="0" fill="#101418"/><rect x="860" y="273" width="7" height="7" rx="0" fill="#101418"/><rect x="866" y="273" width="7" height="7" rx="0" fill="#101418"/><rect x="872" y="273" width="7" height="7" rx="0" fill="#101418"/><rect x="879" y="273" width="7" height="7" rx="0" fill="#101418"/><rect x="927" y="273" width="7" height="7" rx="0" fill="#101418"/><rect x="933" y="273" width="7" height="7" rx="0" fill="#101418"/><rect x="940" y="273" width="7" height="7" rx="0" fill="#101418"/><rect x="946" y="273" width="7" height="7" rx="0" fill="#101418"/><rect x="952" y="273" width="7" height="7" rx="0" fill="#101418"/><rect x="958" y="273" width="7" height="7" rx="0" fill="#101418"/><rect x="964" y="273" width="7" height="7" rx="0" fill="#101418"/><rect x="891" y="279" width="7" height="7" rx="0" fill="#101418"/><rect x="842" y="285" width="7" height="7" rx="0" fill="#101418"/><rect x="848" y="285" width="7" height="7" rx="0" fill="#101418"/><rect x="854" y="285" width="7" height="7" rx="0" fill="#101418"/><rect x="860" y="285" width="7" height="7" rx="0" fill="#101418"/><rect x="872" y="285" width="7" height="7" rx="0" fill="#101418"/><rect x="885" y="285" width="7" height="7" rx="0" fill="#101418"/><rect x="903" y="285" width="7" height="7" rx="0" fill="#101418"/><rect x="909" y="285" width="7" height="7" rx="0" fill="#101418"/><rect x="933" y="285" width="7" height="7" rx="0" fill="#101418"/><rect x="940" y="285" width="7" height="7" rx="0" fill="#101418"/><rect x="958" y="285" width="7" height="7" rx="0" fill="#101418"/><rect x="964" y="285" width="7" height="7" rx="0" fill="#101418"/><rect x="842" y="291" width="7" height="7" rx="0" fill="#101418"/><rect x="860" y="291" width="7" height="7" rx="0" fill="#101418"/><rect x="866" y="291" width="7" height="7" rx="0" fill="#101418"/><rect x="872" y="291" width="7" height="7" rx="0" fill="#101418"/><rect x="879" y="291" width="7" height="7" rx="0" fill="#101418"/><rect x="891" y="291" width="7" height="7" rx="0" fill="#101418"/><rect x="909" y="291" width="7" height="7" rx="0" fill="#101418"/><rect x="921" y="291" width="7" height="7" rx="0" fill="#101418"/><rect x="933" y="291" width="7" height="7" rx="0" fill="#101418"/><rect x="946" y="291" width="7" height="7" rx="0" fill="#101418"/><rect x="952" y="291" width="7" height="7" rx="0" fill="#101418"/><rect x="842" y="297" width="7" height="7" rx="0" fill="#101418"/><rect x="854" y="297" width="7" height="7" rx="0" fill="#101418"/><rect x="860" y="297" width="7" height="7" rx="0" fill="#101418"/><rect x="879" y="297" width="7" height="7" rx="0" fill="#101418"/><rect x="891" y="297" width="7" height="7" rx="0" fill="#101418"/><rect x="897" y="297" width="7" height="7" rx="0" fill="#101418"/><rect x="909" y="297" width="7" height="7" rx="0" fill="#101418"/><rect x="915" y="297" width="7" height="7" rx="0" fill="#101418"/><rect x="921" y="297" width="7" height="7" rx="0" fill="#101418"/><rect x="927" y="297" width="7" height="7" rx="0" fill="#101418"/><rect x="940" y="297" width="7" height="7" rx="0" fill="#101418"/><rect x="952" y="297" width="7" height="7" rx="0" fill="#101418"/><rect x="860" y="303" width="7" height="7" rx="0" fill="#101418"/><rect x="866" y="303" width="7" height="7" rx="0" fill="#101418"/><rect x="885" y="303" width="7" height="7" rx="0" fill="#101418"/><rect x="891" y="303" width="7" height="7" rx="0" fill="#101418"/><rect x="909" y="303" width="7" height="7" rx="0" fill="#101418"/><rect x="940" y="303" width="7" height="7" rx="0" fill="#101418"/><rect x="946" y="303" width="7" height="7" rx="0" fill="#101418"/><rect x="958" y="303" width="7" height="7" rx="0" fill="#101418"/><rect x="842" y="309" width="7" height="7" rx="0" fill="#101418"/><rect x="860" y="309" width="7" height="7" rx="0" fill="#101418"/><rect x="866" y="309" width="7" height="7" rx="0" fill="#101418"/><rect x="879" y="309" width="7" height="7" rx="0" fill="#101418"/><rect x="885" y="309" width="7" height="7" rx="0" fill="#101418"/><rect x="909" y="309" width="7" height="7" rx="0" fill="#101418"/><rect x="921" y="309" width="7" height="7" rx="0" fill="#101418"/><rect x="927" y="309" width="7" height="7" rx="0" fill="#101418"/><rect x="933" y="309" width="7" height="7" rx="0" fill="#101418"/><rect x="946" y="309" width="7" height="7" rx="0" fill="#101418"/><rect x="952" y="309" width="7" height="7" rx="0" fill="#101418"/><rect x="958" y="309" width="7" height="7" rx="0" fill="#101418"/><rect x="891" y="315" width="7" height="7" rx="0" fill="#101418"/><rect x="897" y="315" width="7" height="7" rx="0" fill="#101418"/><rect x="933" y="315" width="7" height="7" rx="0" fill="#101418"/><rect x="940" y="315" width="7" height="7" rx="0" fill="#101418"/><rect x="946" y="315" width="7" height="7" rx="0" fill="#101418"/><rect x="842" y="321" width="7" height="7" rx="0" fill="#101418"/><rect x="848" y="321" width="7" height="7" rx="0" fill="#101418"/><rect x="854" y="321" width="7" height="7" rx="0" fill="#101418"/><rect x="860" y="321" width="7" height="7" rx="0" fill="#101418"/><rect x="866" y="321" width="7" height="7" rx="0" fill="#101418"/><rect x="872" y="321" width="7" height="7" rx="0" fill="#101418"/><rect x="879" y="321" width="7" height="7" rx="0" fill="#101418"/><rect x="891" y="321" width="7" height="7" rx="0" fill="#101418"/><rect x="915" y="321" width="7" height="7" rx="0" fill="#101418"/><rect x="927" y="321" width="7" height="7" rx="0" fill="#101418"/><rect x="842" y="327" width="7" height="7" rx="0" fill="#101418"/><rect x="879" y="327" width="7" height="7" rx="0" fill="#101418"/><rect x="897" y="327" width="7" height="7" rx="0" fill="#101418"/><rect x="921" y="327" width="7" height="7" rx="0" fill="#101418"/><rect x="952" y="327" width="7" height="7" rx="0" fill="#101418"/><rect x="842" y="334" width="7" height="7" rx="0" fill="#101418"/><rect x="854" y="334" width="7" height="7" rx="0" fill="#101418"/><rect x="860" y="334" width="7" height="7" rx="0" fill="#101418"/><rect x="866" y="334" width="7" height="7" rx="0" fill="#101418"/><rect x="879" y="334" width="7" height="7" rx="0" fill="#101418"/><rect x="891" y="334" width="7" height="7" rx="0" fill="#101418"/><rect x="921" y="334" width="7" height="7" rx="0" fill="#101418"/><rect x="952" y="334" width="7" height="7" rx="0" fill="#101418"/><rect x="964" y="334" width="7" height="7" rx="0" fill="#101418"/><rect x="842" y="340" width="7" height="7" rx="0" fill="#101418"/><rect x="854" y="340" width="7" height="7" rx="0" fill="#101418"/><rect x="860" y="340" width="7" height="7" rx="0" fill="#101418"/><rect x="866" y="340" width="7" height="7" rx="0" fill="#101418"/><rect x="879" y="340" width="7" height="7" rx="0" fill="#101418"/><rect x="903" y="340" width="7" height="7" rx="0" fill="#101418"/><rect x="933" y="340" width="7" height="7" rx="0" fill="#101418"/><rect x="940" y="340" width="7" height="7" rx="0" fill="#101418"/><rect x="946" y="340" width="7" height="7" rx="0" fill="#101418"/><rect x="958" y="340" width="7" height="7" rx="0" fill="#101418"/><rect x="964" y="340" width="7" height="7" rx="0" fill="#101418"/><rect x="842" y="346" width="7" height="7" rx="0" fill="#101418"/><rect x="854" y="346" width="7" height="7" rx="0" fill="#101418"/><rect x="860" y="346" width="7" height="7" rx="0" fill="#101418"/><rect x="866" y="346" width="7" height="7" rx="0" fill="#101418"/><rect x="879" y="346" width="7" height="7" rx="0" fill="#101418"/><rect x="915" y="346" width="7" height="7" rx="0" fill="#101418"/><rect x="927" y="346" width="7" height="7" rx="0" fill="#101418"/><rect x="958" y="346" width="7" height="7" rx="0" fill="#101418"/><rect x="842" y="352" width="7" height="7" rx="0" fill="#101418"/><rect x="879" y="352" width="7" height="7" rx="0" fill="#101418"/><rect x="891" y="352" width="7" height="7" rx="0" fill="#101418"/><rect x="897" y="352" width="7" height="7" rx="0" fill="#101418"/><rect x="933" y="352" width="7" height="7" rx="0" fill="#101418"/><rect x="940" y="352" width="7" height="7" rx="0" fill="#101418"/><rect x="952" y="352" width="7" height="7" rx="0" fill="#101418"/><rect x="958" y="352" width="7" height="7" rx="0" fill="#101418"/><rect x="964" y="352" width="7" height="7" rx="0" fill="#101418"/><rect x="842" y="358" width="7" height="7" rx="0" fill="#101418"/><rect x="848" y="358" width="7" height="7" rx="0" fill="#101418"/><rect x="854" y="358" width="7" height="7" rx="0" fill="#101418"/><rect x="860" y="358" width="7" height="7" rx="0" fill="#101418"/><rect x="866" y="358" width="7" height="7" rx="0" fill="#101418"/><rect x="872" y="358" width="7" height="7" rx="0" fill="#101418"/><rect x="879" y="358" width="7" height="7" rx="0" fill="#101418"/><rect x="903" y="358" width="7" height="7" rx="0" fill="#101418"/><rect x="927" y="358" width="7" height="7" rx="0" fill="#101418"/><rect x="933" y="358" width="7" height="7" rx="0" fill="#101418"/><rect x="946" y="358" width="7" height="7" rx="0" fill="#101418"/><rect x="964" y="358" width="7" height="7" rx="0" fill="#101418"/><rect x="48" y="462" width="984" height="276" rx="60" fill="url(#card)"/><rect x="48" y="462" width="984" height="276" rx="60" fill="none" stroke="#272B36" stroke-width="3"/><text x="96" y="558" font-family="Space Grotesk, Inter, system-ui, sans-serif" font-size="60" font-weight="600" fill="#F7F9FC" text-anchor="start" letter-spacing="-0.6" xml:space="preserve">My cold wallet</text><rect x="558" y="501" width="144" height="66" rx="33" fill="#A78BFA26"/><text x="630" y="546" font-family="Inter, system-ui, -apple-system, sans-serif" font-size="36" font-weight="600" fill="#A78BFA" text-anchor="middle" letter-spacing="0.0" xml:space="preserve">Mine</text><text x="96" y="630" font-family="JetBrains Mono, ui-monospace, monospace" font-size="45" font-weight="400" fill="#98A2B3" text-anchor="start" letter-spacing="0.0" xml:space="preserve">8Hd2…t72Q</text><text x="96" y="690" font-family="Inter, system-ui, -apple-system, sans-serif" font-size="36" font-weight="400" fill="#F7F9FC" text-anchor="start" letter-spacing="0.0" xml:space="preserve">4.81 SOL</text><rect x="864" y="540" width="120" height="120" rx="36" fill="#1A1D26" stroke="#272B36" stroke-width="3"/><g transform="translate(897,573) scale(2.2500)"><path d="M9,7h9a2,2 0 0 1 2,2v9a2,2 0 0 1 -2,2h-9a2,2 0 0 1 -2,-2v-9a2,2 0 0 1 2,-2zM9,9v9h9v-9zM5,15h-1a2,2 0 0 1 -2,-2v-9a2,2 0 0 1 2,-2h9a2,2 0 0 1 2,2v1h-2v-1h-9v9h1z" fill="#F7F9FC"/></g></g></svg>